<?xml version="1.0" encoding="utf-8"?>
<!-- Generator: Adobe Illustrator 21.1.0, SVG Export Plug-In . SVG Version: 6.00 Build 0)  -->
<!DOCTYPE svg PUBLIC "-//W3C//DTD SVG 1.1//EN" "http://www.w3.org/Graphics/SVG/1.1/DTD/svg11.dtd">
<svg version="1.1" id="Layer_1" xmlns="http://www.w3.org/2000/svg" xmlns:xlink="http://www.w3.org/1999/xlink" x="0px" y="0px"
	 width="30.6px" height="30.6px" viewBox="0 0 30.6 30.6" style="enable-background:new 0 0 30.6 30.6;" xml:space="preserve">
<style type="text/css">
	.st0{fill:#2FBDB8;}
	.st1{fill:#FFFFFF;}
</style>
<path class="st0" d="M30.6,28.6c0,1.1-0.9,2-2,2H2c-1.1,0-2-0.9-2-2V2c0-1.1,0.9-2,2-2h26.6c1.1,0,2,0.9,2,2V28.6z"/>
<g>
	<path class="st1" d="M22.4,10.5h-2.7c-0.1,0-0.1,0-0.1,0.1v11.9H8.1c0,1.6,1.3,2.9,2.9,2.9h8.7c1.6,0,2.9-1.3,2.9-2.9V10.6
		C22.5,10.6,22.5,10.5,22.4,10.5z"/>
	<path class="st1" d="M19.6,5.2H11h0c-1.6,0-2.9,1.3-2.9,2.9v0v11.9c0,0.1,0,0.1,0.1,0.1h2.7c0.1,0,0.1,0,0.1-0.1V8.1h11.6v0
		C22.5,6.5,21.2,5.2,19.6,5.2z"/>
</g>
<g>
</g>
<g>
</g>
<g>
</g>
<g>
</g>
<g>
</g>
<g>
</g>
</svg>
