<?xml version="1.0" encoding="utf-8"?>
<!-- Generator: Adobe Illustrator 21.1.0, SVG Export Plug-In . SVG Version: 6.00 Build 0)  -->
<!DOCTYPE svg PUBLIC "-//W3C//DTD SVG 1.1//EN" "http://www.w3.org/Graphics/SVG/1.1/DTD/svg11.dtd">
<svg version="1.1" id="Layer_1" xmlns="http://www.w3.org/2000/svg" xmlns:xlink="http://www.w3.org/1999/xlink" x="0px" y="0px"
	 width="30.6px" height="30.6px" viewBox="0 0 30.6 30.6" style="enable-background:new 0 0 30.6 30.6;" xml:space="preserve">
<style type="text/css">
	.st0{fill:#2FBDB8;}
	.st1{fill:#FFFFFF;}
</style>
<path class="st0" d="M30.6,28.6c0,1.1-0.9,2-2,2H2c-1.1,0-2-0.9-2-2V2c0-1.1,0.9-2,2-2h26.6c1.1,0,2,0.9,2,2V28.6z"/>
<g>
	<path class="st1" d="M15.3,6.3c-5,0-9,4-9,9s4,9,9,9c5,0,9-4,9-9S20.3,6.3,15.3,6.3z M15.3,21.3c-3.3,0-6-2.7-6-6s2.7-6,6-6
		c3.3,0,6,2.7,6,6S18.6,21.3,15.3,21.3z"/>
	<circle class="st1" cx="25.4" cy="5" r="1.9"/>
</g>
<g>
</g>
<g>
</g>
<g>
</g>
<g>
</g>
<g>
</g>
<g>
</g>
</svg>
