<?xml version="1.0" encoding="utf-8"?>
<!-- Generator: Adobe Illustrator 21.1.0, SVG Export Plug-In . SVG Version: 6.00 Build 0)  -->
<!DOCTYPE svg PUBLIC "-//W3C//DTD SVG 1.1//EN" "http://www.w3.org/Graphics/SVG/1.1/DTD/svg11.dtd">
<svg version="1.1" id="Layer_1" xmlns="http://www.w3.org/2000/svg" xmlns:xlink="http://www.w3.org/1999/xlink" x="0px" y="0px"
	 width="30.6px" height="30.6px" viewBox="0 0 30.6 30.6" style="enable-background:new 0 0 30.6 30.6;" xml:space="preserve">
<style type="text/css">
	.st0{fill:#2FBDB8;}
	.st1{fill:#FFFFFF;}
</style>
<g>
	<g>
		<g>
			<path class="st0" d="M28.3,0h-26C1,0,0,1,0,2.2v26.2c0,1.2,1,2.2,2.3,2.2h26c1.2,0,2.3-1,2.3-2.2V2.2C30.6,1,29.6,0,28.3,0z"/>
		</g>
	</g>
	<g>
		<g>
			<rect x="4.5" y="11.5" class="st1" width="4.5" height="14.6"/>
			<path class="st1" d="M6.8,4.2c1.4,0,2.6,1.2,2.6,2.6c0,1.5-1.2,2.6-2.6,2.6c-1.5,0-2.6-1.2-2.6-2.6C4.2,5.4,5.3,4.2,6.8,4.2"/>
		</g>
		<path class="st1" d="M11.9,11.5h4.3v2h0.1c0.6-1.1,2.1-2.4,4.3-2.4c4.6,0,5.4,3,5.4,6.9v8h-4.5V19c0-1.7,0-3.9-2.4-3.9
			c-2.4,0-2.7,1.8-2.7,3.7V26h-4.5V11.5z"/>
	</g>
</g>
<g>
</g>
<g>
</g>
<g>
</g>
<g>
</g>
<g>
</g>
<g>
</g>
</svg>
