<?xml version="1.0" encoding="utf-8"?>
<!-- Generator: Adobe Illustrator 21.1.0, SVG Export Plug-In . SVG Version: 6.00 Build 0)  -->
<!DOCTYPE svg PUBLIC "-//W3C//DTD SVG 1.1//EN" "http://www.w3.org/Graphics/SVG/1.1/DTD/svg11.dtd">
<svg version="1.1" id="Layer_1" xmlns="http://www.w3.org/2000/svg" xmlns:xlink="http://www.w3.org/1999/xlink" x="0px" y="0px"
	 width="12.9px" height="12.9px" viewBox="0 0 12.9 12.9" style="enable-background:new 0 0 12.9 12.9;" xml:space="preserve">
<style type="text/css">
	.st0{fill:#2FBDB8;}
</style>
<g>
	<path class="st0" d="M5.5,10.9c-3,0-5.5-2.5-5.5-5.5C0,2.5,2.5,0,5.5,0s5.5,2.5,5.5,5.5C10.9,8.5,8.5,10.9,5.5,10.9z M5.5,1.5
		c-2.2,0-4,1.8-4,4c0,2.2,1.8,4,4,4s4-1.8,4-4C9.4,3.3,7.7,1.5,5.5,1.5z"/>
	<rect x="9.8" y="8.1" transform="matrix(0.7071 -0.7071 0.7071 0.7071 -4.3851 10.5873)" class="st0" width="1.5" height="5"/>
</g>
<g>
</g>
<g>
</g>
<g>
</g>
<g>
</g>
<g>
</g>
<g>
</g>
</svg>
