<?xml version="1.0" encoding="utf-8"?>
<!-- Generator: Adobe Illustrator 21.1.0, SVG Export Plug-In . SVG Version: 6.00 Build 0)  -->
<!DOCTYPE svg PUBLIC "-//W3C//DTD SVG 1.1//EN" "http://www.w3.org/Graphics/SVG/1.1/DTD/svg11.dtd">
<svg version="1.1" id="Layer_1" xmlns="http://www.w3.org/2000/svg" xmlns:xlink="http://www.w3.org/1999/xlink" x="0px" y="0px"
	 width="22.2px" height="22.1px" viewBox="0 0 22.2 22.1" style="enable-background:new 0 0 22.2 22.1;" xml:space="preserve">
<style type="text/css">
	.st0{fill:#123250;}
</style>
<path class="st0" d="M0.6,7.6h4.5v14.6H0.6V7.6z M2.9,0.3c1.4,0,2.6,1.2,2.6,2.6c0,1.5-1.2,2.6-2.6,2.6c-1.5,0-2.6-1.2-2.6-2.6
	C0.3,1.5,1.5,0.3,2.9,0.3 M8,7.6h4.3v2h0.1c0.6-1.1,2.1-2.4,4.3-2.4c4.6,0,5.4,3,5.4,6.9v8h-4.5V15c0-1.7,0-3.9-2.4-3.9
	c-2.4,0-2.7,1.8-2.7,3.7v7.2H8V7.6z"/>
<g>
</g>
<g>
</g>
<g>
</g>
<g>
</g>
<g>
</g>
<g>
</g>
</svg>
