<?xml version="1.0" encoding="utf-8"?>
<!-- Generator: Adobe Illustrator 21.1.0, SVG Export Plug-In . SVG Version: 6.00 Build 0)  -->
<!DOCTYPE svg PUBLIC "-//W3C//DTD SVG 1.1//EN" "http://www.w3.org/Graphics/SVG/1.1/DTD/svg11.dtd">
<svg version="1.1" id="Layer_1" xmlns="http://www.w3.org/2000/svg" xmlns:xlink="http://www.w3.org/1999/xlink" x="0px" y="0px"
	 width="20.9px" height="16.9px" viewBox="0 0 20.9 16.9" style="enable-background:new 0 0 20.9 16.9;" xml:space="preserve">
<style type="text/css">
	.st0{fill:#123250;}
</style>
<path class="st0" d="M20.9,2c-0.8,0.3-1.6,0.6-2.5,0.7c0.9-0.5,1.6-1.4,1.9-2.4c-0.8,0.5-1.7,0.8-2.7,1C16.8,0.5,15.7,0,14.4,0
	c-2.4,0-4.3,1.9-4.3,4.3c0,0.3,0,0.7,0.1,1C6.7,5.1,3.6,3.4,1.5,0.8C1.1,1.4,0.9,2.1,0.9,2.9c0,1.5,0.8,2.8,1.9,3.6
	C2.1,6.5,1.4,6.3,0.8,6c0,0,0,0,0,0.1c0,2.1,1.5,3.8,3.4,4.2c-0.4,0.1-0.7,0.2-1.1,0.2c-0.3,0-0.5,0-0.8-0.1c0.5,1.7,2.1,2.9,4,3
	C4.9,14.4,3,15.1,1,15.1c-0.3,0-0.7,0-1-0.1c1.9,1.2,4.1,1.9,6.6,1.9c7.9,0,12.2-6.5,12.2-12.2c0-0.2,0-0.4,0-0.6
	C19.6,3.6,20.3,2.9,20.9,2z"/>
<g>
</g>
<g>
</g>
<g>
</g>
<g>
</g>
<g>
</g>
<g>
</g>
</svg>
