<?xml version="1.0" encoding="utf-8"?>
<!-- Generator: Adobe Illustrator 21.1.0, SVG Export Plug-In . SVG Version: 6.00 Build 0)  -->
<!DOCTYPE svg PUBLIC "-//W3C//DTD SVG 1.1//EN" "http://www.w3.org/Graphics/SVG/1.1/DTD/svg11.dtd">
<svg version="1.1" id="Layer_1" xmlns="http://www.w3.org/2000/svg" xmlns:xlink="http://www.w3.org/1999/xlink" x="0px" y="0px"
	 width="206.1px" height="115.6px" viewBox="0 0 206.1 115.6" style="enable-background:new 0 0 206.1 115.6;" xml:space="preserve"
	>
<style type="text/css">
	.st0{fill:none;}
	.st1{fill:none;stroke:#2FBDB8;stroke-width:2;stroke-linejoin:round;stroke-miterlimit:10;}
	.st2{opacity:0.1;fill:url(#SVGID_1_);}
</style>
<pattern  x="-0.4" width="407" height="463" patternUnits="userSpaceOnUse" id="New_Pattern_3" viewBox="407 -926.5 407 463" style="overflow:visible;">
	<g>
		<rect x="407" y="-926.5" class="st0" width="407" height="463"/>
		<g>
			<path class="st1" d="M1221-347.8h-33.4c-23.9,0-46-12.7-58-33.4l-47.7-82.3h-67l-14.2,24.5c-12,20.7-34.1,33.4-58,33.4h-56.8
				c-23.9,0-46,12.7-58,33.4L814-347.8l33.5,57.9L814-232l14.2,24.5c12,20.7,34.1,33.4,58,33.4h28.4"/>
		</g>
		<g>
			<path class="st1" d="M407-463.5h67l47.7,82.3c12,20.7,34.1,33.4,58,33.4H608l14.2-24.5c12-20.7,34.1-33.4,58-33.4h59.5
				c22.4,0,43.3-11.2,55.8-29.9l18.6-28"/>
			<path class="st1" d="M742-463.5l-67,115.8l33.5,57.9h31.1c22.4,0,43.3,11.2,55.8,29.9l18.6,28h-33.4c-23.9,0-46,12.7-58,33.4
				l-14.2,24.5l33.5,57.9L675-0.5"/>
			<path class="st1" d="M541-463.5l-67,115.8l33.5,57.9h28.4c23.9,0,46,12.7,58,33.4l28.3,48.9c12,20.7,34.1,33.4,58,33.4h28.4"/>
			<path class="st1" d="M814-347.8h-33.4c-23.9,0-46-12.7-58-33.4L675-463.5h-67L593.8-439c-12,20.7-34.1,33.4-58,33.4h-56.8
				c-23.9,0-46,12.7-58,33.4L407-347.8l33.5,57.9L407-232l14.2,24.5c12,20.7,34.1,33.4,58,33.4h28.4"/>
		</g>
		<g>
			<path class="st1" d="M0-463.5h67l47.7,82.3c12,20.7,34.1,33.4,58,33.4H201l14.2-24.5c12-20.7,34.1-33.4,58-33.4h59.5
				c22.4,0,43.3-11.2,55.8-29.9l18.6-28"/>
			<path class="st1" d="M335-463.5l-67,115.8l33.5,57.9h31.1c22.4,0,43.3,11.2,55.8,29.9l18.6,28h-33.4c-23.9,0-46,12.7-58,33.4
				l-14.2,24.5l33.5,57.9L268-0.5"/>
		</g>
		<g>
			<path class="st1" d="M814-463.5l14.2-24.5c12-20.7,34.1-33.4,58-33.4h56.8c23.9,0,46-12.7,58-33.4l14.2-24.5"/>
			<path class="st1" d="M1221-810.8h-33.4c-23.9,0-46-12.7-58-33.4l-47.7-82.3h-67l-14.2,24.5c-12,20.7-34.1,33.4-58,33.4h-56.8
				c-23.9,0-46,12.7-58,33.4L814-810.8l33.5,57.9L814-695l14.2,24.5c12,20.7,34.1,33.4,58,33.4h28.4"/>
		</g>
		<g>
			<path class="st1" d="M407-926.5h67l47.7,82.3c12,20.7,34.1,33.4,58,33.4H608l14.2-24.5c12-20.7,34.1-33.4,58-33.4h59.5
				c22.4,0,43.3-11.2,55.8-29.9l18.6-28"/>
			<path class="st1" d="M742-926.5l-67,115.8l33.5,57.9h31.1c22.4,0,43.3,11.2,55.8,29.9l18.6,28h-33.4c-23.9,0-46,12.7-58,33.4
				l-14.2,24.5l33.5,57.9l-67,115.8"/>
			<path class="st1" d="M814-463.5h-72l-47.7-82.3c-12-20.7-34.1-33.4-58-33.4H608l-33.5-57.9l67-115.8L608-810.8"/>
			<path class="st1" d="M541-926.5l-67,115.8l33.5,57.9h28.4c23.9,0,46,12.7,58,33.4l28.3,48.9c12,20.7,34.1,33.4,58,33.4h28.4"/>
			<path class="st1" d="M708.5-752.9l-14.2,24.5c-12,20.7-34.1,33.4-58,33.4h-56.8c-23.9,0-46,12.7-58,33.4l-14.2,24.5l33.5,57.9
				l-67,115.8"/>
			<path class="st1" d="M407-463.5l14.2-24.5c12-20.7,34.1-33.4,58-33.4h56.8c23.9,0,46-12.7,58-33.4l14.2-24.5"/>
			<path class="st1" d="M407-579.3h28.4c23.9,0,46,12.7,58,33.4l47.7,82.3h67l14.2-24.5c12-20.7,34.1-33.4,58-33.4h59.5
				c22.4,0,43.3-11.2,55.8-29.9l18.6-28l-38.5-57.9L814-695"/>
			<path class="st1" d="M814-810.8h-33.4c-23.9,0-46-12.7-58-33.4L675-926.5h-67L593.8-902c-12,20.7-34.1,33.4-58,33.4h-56.8
				c-23.9,0-46,12.7-58,33.4L407-810.8l33.5,57.9L407-695l14.2,24.5c12,20.7,34.1,33.4,58,33.4h28.4"/>
			<path class="st1" d="M407-695h28.4c23.9,0,46-12.7,58-33.4l14.2-24.5"/>
		</g>
		<g>
			<path class="st1" d="M0-926.5h67l47.7,82.3c12,20.7,34.1,33.4,58,33.4H201l14.2-24.5c12-20.7,34.1-33.4,58-33.4h59.5
				c22.4,0,43.3-11.2,55.8-29.9l18.6-28"/>
			<path class="st1" d="M335-926.5l-67,115.8l33.5,57.9h31.1c22.4,0,43.3,11.2,55.8,29.9l18.6,28h-33.4c-23.9,0-46,12.7-58,33.4
				l-14.2,24.5l33.5,57.9l-67,115.8"/>
			<path class="st1" d="M0-579.3h28.4c23.9,0,46,12.7,58,33.4l47.7,82.3h67l14.2-24.5c12-20.7,34.1-33.4,58-33.4h59.5
				c22.4,0,43.3-11.2,55.8-29.9l18.6-28l-38.5-57.9L407-695"/>
		</g>
		<g>
			<path class="st1" d="M814-926.5l14.2-24.5c12-20.7,34.1-33.4,58-33.4h56.8c23.9,0,46-12.7,58-33.4l14.2-24.5"/>
		</g>
		<g>
			<path class="st1" d="M742-1389.5l-67,115.8l33.5,57.9h31.1c22.4,0,43.3,11.2,55.8,29.9l18.6,28h-33.4c-23.9,0-46,12.7-58,33.4
				l-14.2,24.5l33.5,57.9l-67,115.8"/>
			<path class="st1" d="M814-926.5h-72l-47.7-82.3c-12-20.7-34.1-33.4-58-33.4H608l-33.5-57.9l67-115.8l-33.5-57.9"/>
			<path class="st1" d="M708.5-1215.9l-14.2,24.5c-12,20.7-34.1,33.4-58,33.4h-56.8c-23.9,0-46,12.7-58,33.4l-14.2,24.5l33.5,57.9
				l-67,115.8"/>
			<path class="st1" d="M407-926.5l14.2-24.5c12-20.7,34.1-33.4,58-33.4h56.8c23.9,0,46-12.7,58-33.4l14.2-24.5"/>
			<path class="st1" d="M407-1042.3h28.4c23.9,0,46,12.7,58,33.4l47.7,82.3h67l14.2-24.5c12-20.7,34.1-33.4,58-33.4h59.5
				c22.4,0,43.3-11.2,55.8-29.9l18.6-28l-38.5-57.9L814-1158"/>
		</g>
		<g>
			<path class="st1" d="M335-1389.5l-67,115.8l33.5,57.9h31.1c22.4,0,43.3,11.2,55.8,29.9l18.6,28h-33.4c-23.9,0-46,12.7-58,33.4
				l-14.2,24.5l33.5,57.9l-67,115.8"/>
			<path class="st1" d="M0-1042.3h28.4c23.9,0,46,12.7,58,33.4l47.7,82.3h67l14.2-24.5c12-20.7,34.1-33.4,58-33.4h59.5
				c22.4,0,43.3-11.2,55.8-29.9l18.6-28l-38.5-57.9L407-1158"/>
		</g>
	</g>
</pattern>
<pattern  id="SVGID_1_" xlink:href="#New_Pattern_3" patternTransform="matrix(1 0 0 1 -301.1232 57.8911)">
</pattern>
<rect x="-8.4" y="-30" class="st2" width="1440" height="896.9"/>
<g>
</g>
<g>
</g>
<g>
</g>
<g>
</g>
<g>
</g>
<g>
</g>
</svg>
