<?xml version="1.0" standalone="no"?>
<!DOCTYPE svg PUBLIC "-//W3C//DTD SVG 20010904//EN"
 "http://www.w3.org/TR/2001/REC-SVG-20010904/DTD/svg10.dtd">
<svg version="1.0" xmlns="http://www.w3.org/2000/svg"
 width="300.000000pt" height="300.000000pt" viewBox="0 0 300.000000 300.000000"
 preserveAspectRatio="xMidYMid meet">
<metadata>
Created by potrace 1.11, written by Peter Selinger 2001-2013
</metadata>
<g transform="translate(0.000000,300.000000) scale(0.100000,-0.100000)"
fill="#000000" stroke="none">
<path d="M0 1500 l0 -1500 1500 0 1500 0 0 1500 0 1500 -1500 0 -1500 0 0
-1500z m1362 1096 c40 -8 97 -23 127 -33 54 -18 54 -18 121 4 329 110 700 -1
921 -275 65 -81 139 -223 164 -317 23 -85 31 -267 15 -362 -28 -176 -128 -364
-253 -479 -59 -54 -66 -64 -76 -119 -40 -198 -149 -385 -294 -503 -164 -132
-337 -194 -547 -194 -216 0 -404 72 -573 222 -125 111 -240 319 -263 477 -6
43 -15 56 -79 119 -121 120 -202 262 -242 420 -12 48 -17 109 -16 204 0 116 4
147 27 223 49 163 121 282 239 393 158 151 352 230 574 233 45 0 114 -5 155
-13z"/>
<path d="M1115 2479 c-274 -40 -501 -230 -591 -494 -22 -65 -28 -103 -32 -203
-5 -142 10 -223 63 -337 32 -71 119 -195 136 -195 5 0 9 13 9 28 0 52 39 186
79 267 46 96 112 185 187 254 52 48 57 56 71 123 40 194 153 378 306 499 26
21 43 40 39 43 -10 6 -169 27 -192 25 -8 -1 -42 -5 -75 -10z"/>
<path d="M1791 2480 c-96 -14 -99 -16 -55 -49 63 -45 169 -164 213 -238 49
-82 84 -175 104 -271 14 -67 19 -75 71 -123 75 -69 141 -158 187 -254 40 -81
79 -215 79 -267 0 -15 4 -28 9 -28 14 0 86 101 121 171 54 106 71 173 77 304
6 138 -12 235 -67 350 -131 274 -444 445 -739 405z"/>
<path d="M1467 2359 c-76 -53 -157 -136 -207 -212 -42 -64 -97 -193 -88 -203
4 -3 19 1 35 9 49 26 160 56 247 67 134 18 292 -8 448 -75 16 -6 16 -3 -2 49
-33 96 -81 175 -154 254 -71 75 -175 152 -205 151 -9 0 -42 -18 -74 -40z"/>
<path d="M1385 1885 c-74 -16 -152 -47 -205 -80 -45 -29 -48 -41 -30 -155 32
-199 138 -375 300 -496 77 -56 85 -58 142 -27 73 40 197 165 246 248 59 100
93 211 99 321 l6 92 -84 40 c-46 22 -116 47 -156 56 -86 19 -235 20 -318 1z"/>
<path d="M2055 1630 c-26 -195 -139 -399 -292 -524 -34 -28 -62 -54 -62 -58
-2 -12 90 -23 184 -23 110 1 209 24 307 73 l73 37 -2 90 c-2 146 -65 307 -164
419 l-36 41 -8 -55z"/>
<path d="M969 1618 c-51 -64 -113 -191 -134 -273 -8 -33 -16 -94 -17 -135 l-3
-75 85 -43 c114 -57 205 -75 346 -69 148 6 158 12 94 61 -92 70 -192 202 -245
322 -30 68 -65 195 -65 236 0 40 -14 35 -61 -24z"/>
<path d="M840 976 c0 -3 11 -34 24 -70 36 -95 98 -186 180 -264 84 -80 174
-133 284 -170 68 -23 94 -26 217 -26 127 0 147 2 220 27 207 72 373 226 451
417 36 90 34 93 -36 64 -177 -72 -388 -79 -566 -19 l-71 24 -76 -24 c-198 -63
-410 -49 -609 39 -10 5 -18 6 -18 2z"/>
</g>
</svg>
